<?xml version="1.0" encoding="UTF-8" standalone="no"?>
<!-- Created with Inkscape (http://www.inkscape.org/) -->

<svg
   xmlns:dc="http://purl.org/dc/elements/1.1/"
   xmlns:cc="http://creativecommons.org/ns#"
   xmlns:rdf="http://www.w3.org/1999/02/22-rdf-syntax-ns#"
   xmlns:svg="http://www.w3.org/2000/svg"
   xmlns="http://www.w3.org/2000/svg"
   xmlns:sodipodi="http://sodipodi.sourceforge.net/DTD/sodipodi-0.dtd"
   xmlns:inkscape="http://www.inkscape.org/namespaces/inkscape"
   width="210mm"
   height="297mm"
   viewBox="0 0 210 297"
   version="1.1"
   id="svg8"
   inkscape:version="0.92.4 (5da689c313, 2019-01-14)"
   sodipodi:docname="Vectorial3.svg">
  <defs
     id="defs2" />
  <sodipodi:namedview
     id="base"
     pagecolor="#ffffff"
     bordercolor="#666666"
     borderopacity="1.0"
     inkscape:pageopacity="0.0"
     inkscape:pageshadow="2"
     inkscape:zoom="5.6568543"
     inkscape:cx="111.28418"
     inkscape:cy="1062.5989"
     inkscape:document-units="mm"
     inkscape:current-layer="layer1"
     showgrid="false"
     inkscape:snap-global="false"
     inkscape:window-width="1366"
     inkscape:window-height="705"
     inkscape:window-x="1912"
     inkscape:window-y="589"
     inkscape:window-maximized="1" />
  <metadata
     id="metadata5">
    <rdf:RDF>
      <cc:Work
         rdf:about="">
        <dc:format>image/svg+xml</dc:format>
        <dc:type
           rdf:resource="http://purl.org/dc/dcmitype/StillImage" />
        <dc:title></dc:title>
      </cc:Work>
    </rdf:RDF>
  </metadata>
  <g
     inkscape:label="Capa 1"
     inkscape:groupmode="layer"
     id="layer1">
    <path
       inkscape:connector-curvature="0"
       id="path4525"
       d="m 11.780861,18.6628 1.931412,-1.115104 1.934517,3.350712 2.575238,-1.486806 -1.934531,-3.350711 1.946046,-1.12355 -6.460698,-3.722444 z"
       style="opacity:1;fill:#000000;fill-opacity:1;stroke:none;stroke-width:52.40522003;stroke-miterlimit:4;stroke-dasharray:none;stroke-dashoffset:0;stroke-opacity:1"
       inkscape:export-xdpi="2678.9253"
       inkscape:export-ydpi="2678.9253" />
    <path
       style="opacity:1;fill:#aa4400;fill-opacity:1;stroke:none;stroke-width:52.40522003;stroke-miterlimit:4;stroke-dasharray:none;stroke-dashoffset:0;stroke-opacity:1"
       d="m 11.409159,18.426263 1.931415,-1.115104 1.934534,3.350711 2.575221,-1.486805 -1.934534,-3.350711 1.946045,-1.12355 -6.460696,-3.722445 z"
       id="rect815"
       inkscape:connector-curvature="0"
       inkscape:export-xdpi="2678.9253"
       inkscape:export-ydpi="2678.9253" />
    <path
       inkscape:export-ydpi="102.83515"
       inkscape:export-xdpi="102.83515"
       style="opacity:1;fill:#000000;fill-opacity:1;stroke:none;stroke-width:52.40522003;stroke-miterlimit:4;stroke-dasharray:none;stroke-dashoffset:0;stroke-opacity:1"
       d="m 39.320365,17.496371 -2.23021,3e-6 1.3e-5,-3.869061 -2.973623,-7e-6 -3e-6,3.869066 -2.247112,0 3.733907,6.454081 z"
       id="path4529"
       inkscape:connector-curvature="0" />
    <path
       inkscape:export-ydpi="102.83515"
       inkscape:export-xdpi="102.83515"
       inkscape:connector-curvature="0"
       id="path4531"
       d="m 39.017124,17.245039 -2.23021,4e-6 -1.3e-5,-3.869077 -2.973623,-8e-6 1.7e-5,3.869077 -2.247113,-7e-6 3.733931,6.454094 z"
       style="opacity:1;fill:#ffcc00;fill-opacity:1;stroke:none;stroke-width:52.40522003;stroke-miterlimit:4;stroke-dasharray:none;stroke-dashoffset:0;stroke-opacity:1" />
    <path
       style="fill:#000000;stroke-width:0.03668893"
       d="m 41.594627,18.048726 c -0.01208,-0.01954 -0.09682,-0.247068 -0.188324,-0.505613 -0.0915,-0.258544 -0.186098,-0.490017 -0.210217,-0.514385 -0.02412,-0.02437 -0.164703,-0.09407 -0.312411,-0.154904 l -0.26856,-0.110601 -0.473867,0.237454 c -0.260627,0.130601 -0.495127,0.237455 -0.521112,0.237455 -0.02599,0 -0.177777,-0.1313 -0.337313,-0.291778 l -0.290067,-0.291778 0.244818,-0.510933 0.244819,-0.510934 -0.111427,-0.270213 c -0.06129,-0.148617 -0.127904,-0.286825 -0.148044,-0.307128 -0.02014,-0.0203 -0.262938,-0.112566 -0.539553,-0.205028 l -0.502937,-0.168113 -0.01004,-0.437255 -0.01004,-0.437255 0.515113,-0.178746 c 0.283312,-0.09831 0.527226,-0.197118 0.542031,-0.219573 0.01481,-0.02246 0.07762,-0.160817 0.13959,-0.307469 l 0.112672,-0.266641 -0.254174,-0.500206 -0.254175,-0.500206 0.308496,-0.308496 0.308497,-0.308497 0.514139,0.242818 0.51414,0.242818 0.303648,-0.125916 0.303649,-0.125916 0.173042,-0.528021 0.173042,-0.52802 h 0.437141 0.437141 l 0.184448,0.503205 c 0.101446,0.276763 0.200957,0.518492 0.221136,0.537175 0.02018,0.01868 0.158246,0.08447 0.306817,0.146198 l 0.270127,0.11223 0.503769,-0.252366 0.503768,-0.252365 0.306736,0.308338 0.306735,0.308337 -0.247757,0.506462 -0.247757,0.506463 0.115539,0.274063 c 0.06355,0.150735 0.131086,0.290575 0.15009,0.310753 0.019,0.02018 0.260874,0.112367 0.537489,0.204862 l 0.502937,0.168173 v 0.43364 0.433639 l -0.520158,0.185859 -0.520157,0.185858 -0.132581,0.30526 -0.13258,0.305259 0.252422,0.490865 0.252422,0.490866 -0.310255,0.310255 -0.310255,0.310255 -0.492199,-0.233877 c -0.270709,-0.128632 -0.504417,-0.233877 -0.519353,-0.233877 -0.01493,0 -0.158406,0.05521 -0.318826,0.122683 l -0.291672,0.122682 -0.173151,0.528547 -0.173151,0.528545 -0.421169,0.01031 c -0.243958,0.0059 -0.43041,-0.0047 -0.443129,-0.02522 z m 0.835132,-2.222943 c 0.115839,-0.03017 0.279068,-0.08978 0.362733,-0.132463 0.198961,-0.101502 0.525676,-0.41256 0.642241,-0.611461 0.28858,-0.492425 0.303559,-1.119254 0.03915,-1.638339 -0.09769,-0.191775 -0.411414,-0.519425 -0.607241,-0.634187 -0.515583,-0.302152 -1.188853,-0.302152 -1.704437,0 -0.195826,0.114762 -0.509555,0.442412 -0.607239,0.634187 -0.264409,0.519085 -0.24943,1.145914 0.03915,1.638339 0.116825,0.199344 0.443418,0.510029 0.643385,0.612045 0.356506,0.181876 0.8084,0.231861 1.192256,0.131879 z"
       id="path4555"
       inkscape:connector-curvature="0"
       inkscape:export-xdpi="102.83515"
       inkscape:export-ydpi="102.83515" />
    <path
       inkscape:connector-curvature="0"
       id="path4557"
       d="m 43.120209,24.684058 c -0.01208,-0.01954 -0.09682,-0.247068 -0.188324,-0.505613 -0.0915,-0.258544 -0.186098,-0.490017 -0.210217,-0.514385 -0.02412,-0.02437 -0.164703,-0.09407 -0.312411,-0.154904 l -0.26856,-0.110601 -0.473867,0.237454 c -0.260627,0.130601 -0.495127,0.237455 -0.521112,0.237455 -0.02599,0 -0.177777,-0.1313 -0.337313,-0.291778 l -0.290067,-0.291778 0.244818,-0.510933 0.244819,-0.510934 -0.111427,-0.270213 c -0.06129,-0.148617 -0.127904,-0.286825 -0.148044,-0.307128 -0.02014,-0.0203 -0.262938,-0.112566 -0.539553,-0.205028 l -0.502937,-0.168113 -0.01004,-0.437255 -0.01004,-0.437255 0.515113,-0.178746 c 0.283312,-0.09831 0.527226,-0.197118 0.542031,-0.219573 0.01481,-0.02246 0.07762,-0.160817 0.13959,-0.307469 l 0.112672,-0.266641 -0.254174,-0.500206 -0.254175,-0.500206 0.308496,-0.308496 0.308497,-0.308497 0.514139,0.242818 0.51414,0.242818 0.303648,-0.125916 0.303649,-0.125916 0.173042,-0.528021 0.173042,-0.52802 h 0.437141 0.437141 l 0.184448,0.503205 c 0.101446,0.276763 0.200957,0.518492 0.221136,0.537175 0.02018,0.01868 0.158246,0.08447 0.306817,0.146198 l 0.270127,0.11223 0.503769,-0.252366 0.503768,-0.252365 0.306736,0.308338 0.306735,0.308337 -0.247757,0.506462 -0.247757,0.506463 0.115539,0.274063 c 0.06355,0.150735 0.131086,0.290575 0.15009,0.310753 0.019,0.02018 0.260874,0.112367 0.537489,0.204862 l 0.502937,0.168173 v 0.43364 0.433639 l -0.520158,0.185859 -0.520157,0.185858 -0.132581,0.30526 -0.13258,0.305259 0.252422,0.490865 0.252422,0.490866 -0.310255,0.310255 -0.310255,0.310255 -0.492199,-0.233877 c -0.270709,-0.128632 -0.504417,-0.233877 -0.519353,-0.233877 -0.01493,0 -0.158406,0.05521 -0.318826,0.122683 l -0.291672,0.122682 -0.173151,0.528547 -0.173151,0.528545 -0.421169,0.01031 c -0.243958,0.0059 -0.43041,-0.0047 -0.443129,-0.02522 z m 0.835132,-2.222943 c 0.115839,-0.03017 0.279068,-0.08978 0.362733,-0.132463 0.198961,-0.101502 0.525676,-0.41256 0.642241,-0.611461 0.28858,-0.492425 0.303559,-1.119254 0.03915,-1.638339 -0.09769,-0.191775 -0.411414,-0.519425 -0.607241,-0.634187 -0.515583,-0.302152 -1.188853,-0.302152 -1.704437,0 -0.195826,0.114762 -0.509555,0.442412 -0.607239,0.634187 -0.264409,0.519085 -0.24943,1.145914 0.03915,1.638339 0.116825,0.199344 0.443418,0.510029 0.643385,0.612045 0.356506,0.181876 0.8084,0.231861 1.192256,0.131879 z"
       style="fill:#000000;stroke-width:0.03668893"
       inkscape:export-xdpi="102.83515"
       inkscape:export-ydpi="102.83515" />
  </g>
</svg>
