<?xml version="1.0" encoding="UTF-8" standalone="no"?>
<!-- Created with Inkscape (http://www.inkscape.org/) -->

<svg
   xmlns:dc="http://purl.org/dc/elements/1.1/"
   xmlns:cc="http://creativecommons.org/ns#"
   xmlns:rdf="http://www.w3.org/1999/02/22-rdf-syntax-ns#"
   xmlns:svg="http://www.w3.org/2000/svg"
   xmlns="http://www.w3.org/2000/svg"
   xmlns:sodipodi="http://sodipodi.sourceforge.net/DTD/sodipodi-0.dtd"
   xmlns:inkscape="http://www.inkscape.org/namespaces/inkscape"
   width="1920"
   height="1080"
   viewBox="0 0 508 285.75001"
   version="1.1"
   id="svg8"
   inkscape:version="0.92.4 (5da689c313, 2019-01-14)"
   sodipodi:docname="Vectorial.svg">
  <defs
     id="defs2">
    <filter
       inkscape:collect="always"
       style="color-interpolation-filters:sRGB"
       id="filter4770"
       x="-0.0708"
       width="1.1416"
       y="-0.0708"
       height="1.1416">
      <feGaussianBlur
         inkscape:collect="always"
         stdDeviation="4.5729816"
         id="feGaussianBlur4772" />
    </filter>
  </defs>
  <sodipodi:namedview
     id="base"
     pagecolor="#ffffff"
     bordercolor="#666666"
     borderopacity="1.0"
     inkscape:pageopacity="0.0"
     inkscape:pageshadow="2"
     inkscape:zoom="0.49497475"
     inkscape:cx="1094.6267"
     inkscape:cy="323.59058"
     inkscape:document-units="mm"
     inkscape:current-layer="layer1"
     showgrid="false"
     units="px"
     inkscape:showpageshadow="false"
     borderlayer="true"
     inkscape:window-width="1920"
     inkscape:window-height="1017"
     inkscape:window-x="1358"
     inkscape:window-y="-8"
     inkscape:window-maximized="1"
     inkscape:snap-global="false" />
  <metadata
     id="metadata5">
    <rdf:RDF>
      <cc:Work
         rdf:about="">
        <dc:format>image/svg+xml</dc:format>
        <dc:type
           rdf:resource="http://purl.org/dc/dcmitype/StillImage" />
        <dc:title></dc:title>
      </cc:Work>
    </rdf:RDF>
  </metadata>
  <g
     inkscape:label="Capa 1"
     inkscape:groupmode="layer"
     id="layer1"
     transform="translate(0,-11.249955)">
    <rect
       style="opacity:1;fill:#d7e3f4;fill-opacity:1;stroke:none;stroke-width:3.56500006;stroke-miterlimit:4;stroke-dasharray:none;stroke-dashoffset:0;stroke-opacity:1"
       id="rect4520"
       width="520.31213"
       height="301.82416"
       x="-9.8273811"
       y="7.4701934" />
    <rect
       y="29.195889"
       x="47.463829"
       height="13.363476"
       width="147.53278"
       id="rect4776"
       style="opacity:1;fill:#87aade;fill-opacity:1;stroke:none;stroke-width:3.93967009;stroke-miterlimit:4;stroke-dasharray:none;stroke-dashoffset:0;stroke-opacity:1" />
    <circle
       style="opacity:1;fill:#ffcc00;fill-opacity:1;stroke:none;stroke-width:3.56500006;stroke-miterlimit:4;stroke-dasharray:none;stroke-dashoffset:0;stroke-opacity:1;filter:url(#filter4770)"
       id="path4524"
       cx="254.44058"
       cy="214.68094"
       r="77.508163" />
    <path
       style="fill:#e9c6af;stroke:#deaa87;stroke-width:3.565;stroke-linecap:butt;stroke-linejoin:miter;stroke-opacity:1;stroke-miterlimit:4;stroke-dasharray:none"
       d="m 0,251.56413 82.319012,9.62171 117.064058,-7.48355 94.61341,14.96709 124.01306,-40.09043 93.54434,6.41447 -1.06908,74.30092 H -4.8108515 Z"
       id="path10"
       inkscape:connector-curvature="0" />
    <rect
       style="opacity:1;fill:#2a7fff;fill-opacity:1;stroke:none;stroke-width:2.24971008;stroke-miterlimit:4;stroke-dasharray:none;stroke-dashoffset:0;stroke-opacity:1"
       id="rect4774"
       width="48.108505"
       height="13.363476"
       x="47.732449"
       y="29.195889" />
    <ellipse
       style="opacity:1;fill:#784421;fill-opacity:1;stroke:none;stroke-width:3.56500006;stroke-miterlimit:4;stroke-dasharray:none;stroke-dashoffset:0;stroke-opacity:1"
       id="path4782"
       cx="260.87158"
       cy="199.48317"
       rx="11.225321"
       ry="10.156242"
       transform="rotate(11.330773)" />
    <ellipse
       style="opacity:1;fill:#784421;fill-opacity:1;stroke:none;stroke-width:3.56500006;stroke-miterlimit:4;stroke-dasharray:none;stroke-dashoffset:0;stroke-opacity:1"
       id="path4784"
       cx="312.72189"
       cy="198.94864"
       rx="10.690781"
       ry="9.6217022"
       transform="rotate(11.330773)" />
    <path
       style="fill:#ffffff;stroke:none;stroke-width:0.26458332px;stroke-linecap:butt;stroke-linejoin:miter;stroke-opacity:1"
       d="m 240.92351,223.37583 c 0,0 5.16593,-80.1944 7.57648,-78.62106 2.41056,1.57336 34.98924,67.52438 32.25767,83.87713 -2.73158,16.35276 -39.83415,-5.25607 -39.83415,-5.25607 z"
       id="path4786"
       inkscape:connector-curvature="0" />
    <rect
       transform="matrix(-0.92418727,0.38193965,0.38193965,0.92418727,0,0)"
       style="opacity:1;fill:#808080;fill-opacity:1;stroke:none;stroke-width:2.40258455;stroke-miterlimit:4;stroke-dasharray:none;stroke-dashoffset:0;stroke-opacity:1"
       id="rect4885"
       width="1.8708864"
       height="16.503893"
       x="-165.15021"
       y="316.3168" />
    <rect
       y="-30.901653"
       x="353.81915"
       height="16.503893"
       width="1.8708864"
       id="rect4883"
       style="opacity:1;fill:#808080;fill-opacity:1;stroke:none;stroke-width:2.40258455;stroke-miterlimit:4;stroke-dasharray:none;stroke-dashoffset:0;stroke-opacity:1"
       transform="rotate(45.115427)" />
    <rect
       style="opacity:1;fill:#ff7f2a;fill-opacity:1;stroke:none;stroke-width:3.56500006;stroke-miterlimit:4;stroke-dasharray:none;stroke-dashoffset:0;stroke-opacity:1"
       id="rect4788"
       width="3.7417715"
       height="12.828935"
       x="280.11499"
       y="171.68715"
       transform="rotate(11.330773)" />
    <rect
       style="opacity:1;fill:#4d4d4d;fill-opacity:1;stroke:none;stroke-width:3.56500006;stroke-miterlimit:4;stroke-dasharray:none;stroke-dashoffset:0;stroke-opacity:1"
       id="rect4790"
       width="13.898015"
       height="17.105249"
       x="249.11174"
       y="164.20358"
       transform="rotate(11.330773)" />
    <path
       style="opacity:1;fill:#000080;fill-opacity:1;stroke:none;stroke-width:1.80116165;stroke-miterlimit:4;stroke-dasharray:none;stroke-dashoffset:0;stroke-opacity:1"
       d="m 263.55998,208.18616 c -2.32114,-0.46505 -4.65414,1.41048 -5.21091,4.18916 -0.5568,2.77867 0.87346,5.40828 3.19458,5.87344 2.32114,0.46505 4.65414,-1.41048 5.21091,-4.18916 0.5568,-2.77866 -0.87346,-5.40828 -3.19458,-5.87344 z m -2.01633,10.0626 -2.47784,-0.49651 -0.34564,1.7249 -5.40645,3.1033 -0.48966,2.44365 5.40646,-3.10329 -3.1973,15.95633 4.23694,0.84899 3.19731,-15.95633 2.94887,5.07657 0.48966,-2.44366 -2.94888,-5.07656 0.34563,-1.72491 z"
       id="rect4778"
       inkscape:connector-curvature="0"
       sodipodi:nodetypes="ccccccccccccccccccc" />
    <path
       style="opacity:1;fill:#d40000;fill-opacity:1;stroke:none;stroke-width:5.53700733;stroke-miterlimit:4;stroke-dasharray:none;stroke-dashoffset:0;stroke-opacity:1"
       d="m 1595.37,764.15848 c -4.1046,0.0694 24.0943,-2.95341 32.4871,17.26981 l 2.2132,11.42913 H 1570 v 9.27344 l -4.5938,2.11328 c -1.8534,-2.50961 -5.3142,-4.06182 -9.0664,-4.06641 -5.7704,-3.3e-4 -10.4482,3.59833 -10.4472,8.03711 4e-4,4.43802 4.6778,8.03549 10.4472,8.03516 5.3158,-0.002 9.7816,-3.07515 10.375,-7.13867 l 7.1309,-3.28125 -0.053,-0.11524 h 7.0957 v 10.99219 h 4.9687 v -10.99219 h 7.0313 v 10.99219 h 4.9687 v -10.99219 h 7.0313 v 10.99219 h 4.9707 v -10.99219 h 7.0293 v 10.99219 h 4.9707 v -10.99219 l 4.2125,3.21429 8.9284,-5.35715 3.9285,-7.14313 -1.8976,-3.57143 c 2.6546,-27.6531 -39.5008,-44.64911 -41.6612,-28.69894 z"
       transform="matrix(0.26458333,0,0,0.26458333,0,11.249955)"
       id="rect4802"
       inkscape:connector-curvature="0"
       sodipodi:nodetypes="ccccccccccccccccccccccccccccccccc" />
    <path
       sodipodi:nodetypes="ccccccccccccccccccccccccccccccccc"
       inkscape:connector-curvature="0"
       id="path4819"
       d="m 453.85832,216.07937 c -1.086,0.0184 6.37495,-0.78142 8.59555,4.5693 l 0.58557,3.02396 h -15.8936 v 2.4536 l -1.21544,0.55914 c -0.49038,-0.664 -1.40605,-1.07469 -2.39882,-1.07591 -1.52675,-8e-5 -2.76442,0.95206 -2.76415,2.12649 1e-4,1.17422 1.23767,2.12606 2.76415,2.12597 1.40648,-5.3e-4 2.58805,-0.81364 2.74506,-1.88877 l 1.88671,-0.86817 -0.014,-0.0305 h 1.8774 v 2.90835 h 1.31464 v -2.90835 h 1.86036 v 2.90835 h 1.31464 v -2.90835 h 1.86036 v 2.90835 h 1.31517 v -2.90835 h 1.85983 v 2.90835 h 1.31517 v -2.90835 l 1.11456,0.85045 2.3623,-1.41741 1.03942,-1.88996 -0.50208,-0.94494 c 0.70237,-7.31655 -10.45125,-11.81341 -11.02286,-7.59326 z"
       style="opacity:1;fill:#d40000;fill-opacity:1;stroke:none;stroke-width:1.46499979;stroke-miterlimit:4;stroke-dasharray:none;stroke-dashoffset:0;stroke-opacity:1" />
    <path
       style="opacity:1;fill:#d40000;fill-opacity:1;stroke:none;stroke-width:1.46499979;stroke-miterlimit:4;stroke-dasharray:none;stroke-dashoffset:0;stroke-opacity:1"
       d="m 483.49184,218.72522 c -1.086,0.0184 6.37495,-0.78142 8.59555,4.5693 l 0.58557,3.02396 h -15.8936 v 2.4536 l -1.21544,0.55914 c -0.49038,-0.664 -1.40605,-1.07469 -2.39882,-1.07591 -1.52675,-8e-5 -2.76442,0.95206 -2.76415,2.12649 10e-5,1.17422 1.23767,2.12606 2.76415,2.12597 1.40648,-5.3e-4 2.58805,-0.81364 2.74506,-1.88877 l 1.88671,-0.86817 -0.014,-0.0305 h 1.8774 v 2.90835 h 1.31464 v -2.90835 h 1.86036 v 2.90835 h 1.31464 v -2.90835 h 1.86036 v 2.90835 h 1.31517 v -2.90835 h 1.85983 v 2.90835 h 1.31517 v -2.90835 l 1.11456,0.85045 2.3623,-1.41741 1.03942,-1.88996 -0.50208,-0.94494 c 0.70237,-7.31655 -10.45125,-11.81341 -11.02286,-7.59326 z"
       id="path4821"
       inkscape:connector-curvature="0"
       sodipodi:nodetypes="ccccccccccccccccccccccccccccccccc" />
    <g
       id="g4839"
       transform="translate(4.8108515,5.8799296)">
      <circle
         r="11.717261"
         cy="27.880907"
         cx="21.544643"
         id="path4823"
         style="opacity:1;fill:#ffffff;fill-opacity:1;stroke:none;stroke-width:3.76499987;stroke-miterlimit:4;stroke-dasharray:none;stroke-dashoffset:0;stroke-opacity:1" />
      <ellipse
         ry="3.3408689"
         rx="2.9399648"
         cy="26.924097"
         cx="17.372519"
         id="path4825"
         style="opacity:1;fill:#1a1a1a;fill-opacity:1;stroke:none;stroke-width:3.76499987;stroke-miterlimit:4;stroke-dasharray:none;stroke-dashoffset:0;stroke-opacity:1" />
      <ellipse
         style="opacity:1;fill:#1a1a1a;fill-opacity:1;stroke:none;stroke-width:3.76499987;stroke-miterlimit:4;stroke-dasharray:none;stroke-dashoffset:0;stroke-opacity:1"
         id="ellipse4827"
         cx="26.368361"
         cy="26.924097"
         rx="2.9399648"
         ry="3.3408689" />
      <ellipse
         ry="1.9741498"
         rx="1.7372519"
         cy="32.834396"
         cx="22.225681"
         id="ellipse4829"
         style="opacity:1;fill:#1a1a1a;fill-opacity:1;stroke:none;stroke-width:2.22477269;stroke-miterlimit:4;stroke-dasharray:none;stroke-dashoffset:0;stroke-opacity:1" />
      <rect
         y="36.011261"
         x="17.238884"
         height="7.2162771"
         width="9.8889723"
         id="rect4831"
         style="opacity:1;fill:#ffffff;fill-opacity:1;stroke:none;stroke-width:3.76499987;stroke-miterlimit:4;stroke-dasharray:none;stroke-dashoffset:0;stroke-opacity:1" />
    </g>
    <path
       style="fill:#808080;stroke:none;stroke-width:0.26458332px;stroke-linecap:butt;stroke-linejoin:miter;stroke-opacity:1"
       d="m 277.39347,254.94344 3.15316,-22.53767 21.0084,28.46946 z"
       id="path4841"
       inkscape:connector-curvature="0" />
    <g
       id="g4870"
       transform="rotate(-23.028106,194.77904,-446.71234)">
      <g
         transform="translate(20.446119,-2.4054257)"
         id="g4864">
        <path
           inkscape:connector-curvature="0"
           style="opacity:1;fill:#ff0000;fill-opacity:1;stroke:none;stroke-width:14.22992039;stroke-miterlimit:4;stroke-dasharray:none;stroke-dashoffset:0;stroke-opacity:1"
           d="m 199,858.77734 c -8.95399,0 -16.16211,7.20812 -16.16211,16.16211 0,1.39898 0.19431,2.74811 0.52539,4.04102 h -5.57617 c -9.51362,0 -17.17383,7.65826 -17.17383,17.17187 v 29.29493 c 0,9.51361 7.66021,17.17187 17.17383,17.17187 h 38.38477 c 9.51361,0 17.17382,-7.65826 17.17382,-17.17187 v -29.29493 c 0,-8.67777 -6.3791,-15.79182 -14.71875,-16.97851 0.36385,-1.35079 0.57617,-2.76551 0.57617,-4.23438 10e-6,-8.95399 -7.20811,-16.16211 -16.1621,-16.16211 z m 1.19922,9.59571 h 1.64258 c 3.63756,0 6.56445,2.92884 6.56445,6.5664 0,1.52809 -0.51994,2.92765 -1.38867,4.04102 h -11.99414 c -0.86913,-1.11337 -1.39063,-2.51293 -1.39063,-4.04102 0,-3.63756 2.92885,-6.5664 6.56641,-6.5664 z"
           transform="matrix(0.26458333,0,0,0.26458333,0,11.249955)"
           id="rect4845" />
        <path
           inkscape:connector-curvature="0"
           id="path4851"
           d="M 57.863852,246.88691 46.638533,257.04316"
           style="fill:none;stroke:#aa0000;stroke-width:2.46499991;stroke-linecap:butt;stroke-linejoin:miter;stroke-miterlimit:4;stroke-dasharray:none;stroke-opacity:1" />
      </g>
      <path
         inkscape:connector-curvature="0"
         id="path4849"
         d="M 67.485556,244.34785 78.710875,254.5041"
         style="fill:none;stroke:#aa0000;stroke-width:2.46499991;stroke-linecap:butt;stroke-linejoin:miter;stroke-miterlimit:4;stroke-dasharray:none;stroke-opacity:1" />
    </g>
    <rect
       style="opacity:1;fill:#808080;fill-opacity:1;stroke:none;stroke-width:2.29963446;stroke-miterlimit:4;stroke-dasharray:none;stroke-dashoffset:0;stroke-opacity:1"
       id="rect4874"
       width="2.9399645"
       height="9.6217022"
       x="310.85101"
       y="163.80269"
       transform="rotate(11.330773)" />
    <path
       style="opacity:1;fill:#808080;fill-opacity:1;stroke:none;stroke-width:2.46499991;stroke-miterlimit:4;stroke-dasharray:none;stroke-dashoffset:0;stroke-opacity:1"
       d="m 261.9305,225.70749 1.67,4.22535 21.37616,-8.44852 -0.34381,-0.86987 3.10702,-1.22799 -0.9332,-2.36114 -3.10701,1.22799 -0.39299,-0.99434 z"
       id="rect4876"
       inkscape:connector-curvature="0" />
    <circle
       style="opacity:1;fill:#4d4d4d;fill-opacity:1;stroke:none;stroke-width:2.46499991;stroke-miterlimit:4;stroke-dasharray:none;stroke-dashoffset:0;stroke-opacity:1"
       id="path4881"
       cx="312.38779"
       cy="164.80495"
       r="0.8018086"
       transform="rotate(11.330773)" />
    <rect
       style="opacity:1;fill:#784421;fill-opacity:1;stroke:none;stroke-width:3.56500006;stroke-miterlimit:4;stroke-dasharray:none;stroke-dashoffset:0;stroke-opacity:1"
       id="rect4780"
       width="72.162773"
       height="5.8799295"
       x="249.64629"
       y="183.44701"
       transform="rotate(11.330773)" />
    <path
       style="fill:none;stroke:#000000;stroke-width:1.46500003;stroke-linecap:butt;stroke-linejoin:miter;stroke-miterlimit:4;stroke-dasharray:none;stroke-opacity:1"
       d="m 215.6602,220.22168 c 0,0 -4.25489,25.31533 -2.47348,27.30777 1.78142,1.99245 6.13092,4.77208 6.44699,0.47409 0.31606,-4.29799 -3.97351,-27.78186 -3.97351,-27.78186 z"
       id="path4792"
       inkscape:connector-curvature="0" />
    <ellipse
       style="opacity:1;fill:#666666;fill-opacity:1;stroke:none;stroke-width:1.46499991;stroke-miterlimit:4;stroke-dasharray:none;stroke-dashoffset:0;stroke-opacity:1"
       id="path4794"
       cx="260.87161"
       cy="199.61681"
       rx="3.4745038"
       ry="3.6081386"
       transform="rotate(11.330773)" />
    <g
       id="g4911"
       transform="matrix(1.1848073,0,0,1.1848073,-58.706007,-24.003246)">
      <path
         style="fill:#2b1100;fill-opacity:1;stroke:none;stroke-width:0.26458332px;stroke-linecap:butt;stroke-linejoin:miter;stroke-opacity:1"
         d="m 279.32441,86.325475 c -0.66146,0.850445 -0.66146,1.322917 -0.42524,1.464657 0.23625,0.141742 2.55135,1.039434 2.83482,0.614212 0.28348,-0.425223 0.8032,-0.803199 0.37799,-1.086681 -0.42524,-0.283483 -0.85045,-0.425225 -0.85045,-0.425225 l -0.56698,-0.944939 z"
         id="path4901"
         inkscape:connector-curvature="0" />
      <path
         inkscape:connector-curvature="0"
         id="path4895"
         d="m 265.93318,87.460643 6.94899,-4.944485 0.80182,2.939965 -5.34538,2.539061 z"
         style="fill:#ffccaa;stroke:none;stroke-width:0.26458332px;stroke-linecap:butt;stroke-linejoin:miter;stroke-opacity:1" />
      <path
         style="fill:#333333;fill-opacity:1;stroke:none;stroke-width:0.26458332px;stroke-linecap:butt;stroke-linejoin:miter;stroke-opacity:1"
         d="m 282.1531,83.852504 c -8.95356,-15.367997 -5.61269,-17.372517 -5.61269,-17.372517 0,0 -6.68173,4.009043 -7.48353,5.612659 -0.80182,1.603618 3.87541,0.668173 3.87541,0.668173 l -3.34087,5.479026 5.87992,-1.202713 -3.34087,4.810852 4.94451,-1.202714 0.80179,3.474506 z"
         id="path4891"
         inkscape:connector-curvature="0" />
      <ellipse
         ry="2.6458333"
         rx="7.5595236"
         cy="84.199364"
         cx="278.94644"
         id="path4887"
         style="opacity:1;fill:#4d4d4d;fill-opacity:1;stroke:none;stroke-width:2.46499991;stroke-miterlimit:4;stroke-dasharray:none;stroke-dashoffset:0;stroke-opacity:1" />
      <path
         inkscape:connector-curvature="0"
         id="path4889"
         d="m 277.96029,83.852504 c 8.95356,-15.367997 5.61269,-17.372517 5.61269,-17.372517 0,0 6.68173,4.009043 7.48353,5.612659 0.80182,1.603618 -3.87541,0.668173 -3.87541,0.668173 l 3.34087,5.479026 -5.87992,-1.202713 3.34087,4.810852 -4.94451,-1.202714 -0.80179,3.474506 z"
         style="fill:#4d4d4d;fill-opacity:1;stroke:none;stroke-width:0.26458332px;stroke-linecap:butt;stroke-linejoin:miter;stroke-opacity:1" />
      <ellipse
         ry="2.3386083"
         rx="2.8731472"
         cy="88.596542"
         cx="266.40091"
         id="path4893"
         style="opacity:1;fill:#4d4d4d;fill-opacity:1;stroke:none;stroke-width:2.46499991;stroke-miterlimit:4;stroke-dasharray:none;stroke-dashoffset:0;stroke-opacity:1" />
      <path
         inkscape:connector-curvature="0"
         id="path4897"
         d="m 263.87463,88.782319 c -1.08669,1.842635 -2.4096,3.023809 -2.45685,3.307292 -0.0473,0.283482 1.18118,3.023809 1.18118,3.023809 l -0.37798,-2.456844 3.92151,-2.409598 z"
         style="fill:#803300;stroke:none;stroke-width:0.26458332px;stroke-linecap:butt;stroke-linejoin:miter;stroke-opacity:1" />
      <path
         inkscape:connector-curvature="0"
         id="path4899"
         d="m 281.97024,86.325475 c -0.66146,0.850445 -0.66146,1.322917 -0.42524,1.464657 0.23625,0.141742 2.55135,1.039434 2.83482,0.614212 0.28348,-0.425223 0.8032,-0.803199 0.37799,-1.086681 -0.42524,-0.283483 -0.85045,-0.425225 -0.85045,-0.425225 l -0.56698,-0.944939 z"
         style="fill:#803300;fill-opacity:1;stroke:none;stroke-width:0.26458332px;stroke-linecap:butt;stroke-linejoin:miter;stroke-opacity:1" />
    </g>
    <g
       transform="matrix(1.1848073,0,0,1.1848073,74.719588,-16.821698)"
       id="g4929">
      <path
         inkscape:connector-curvature="0"
         id="path4913"
         d="m 279.32441,86.325475 c -0.66146,0.850445 -0.66146,1.322917 -0.42524,1.464657 0.23625,0.141742 2.55135,1.039434 2.83482,0.614212 0.28348,-0.425223 0.8032,-0.803199 0.37799,-1.086681 -0.42524,-0.283483 -0.85045,-0.425225 -0.85045,-0.425225 l -0.56698,-0.944939 z"
         style="fill:#2b1100;fill-opacity:1;stroke:none;stroke-width:0.26458332px;stroke-linecap:butt;stroke-linejoin:miter;stroke-opacity:1" />
      <path
         style="fill:#ffccaa;stroke:none;stroke-width:0.26458332px;stroke-linecap:butt;stroke-linejoin:miter;stroke-opacity:1"
         d="m 265.93318,87.460643 6.94899,-4.944485 0.80182,2.939965 -5.34538,2.539061 z"
         id="path4915"
         inkscape:connector-curvature="0" />
      <path
         inkscape:connector-curvature="0"
         id="path4917"
         d="m 282.1531,83.852504 c -8.95356,-15.367997 -5.61269,-17.372517 -5.61269,-17.372517 0,0 -6.68173,4.009043 -7.48353,5.612659 -0.80182,1.603618 3.87541,0.668173 3.87541,0.668173 l -3.34087,5.479026 5.87992,-1.202713 -3.34087,4.810852 4.94451,-1.202714 0.80179,3.474506 z"
         style="fill:#333333;fill-opacity:1;stroke:none;stroke-width:0.26458332px;stroke-linecap:butt;stroke-linejoin:miter;stroke-opacity:1" />
      <ellipse
         style="opacity:1;fill:#4d4d4d;fill-opacity:1;stroke:none;stroke-width:2.46499991;stroke-miterlimit:4;stroke-dasharray:none;stroke-dashoffset:0;stroke-opacity:1"
         id="ellipse4919"
         cx="278.94644"
         cy="84.199364"
         rx="7.5595236"
         ry="2.6458333" />
      <path
         style="fill:#4d4d4d;fill-opacity:1;stroke:none;stroke-width:0.26458332px;stroke-linecap:butt;stroke-linejoin:miter;stroke-opacity:1"
         d="m 277.96029,83.852504 c 8.95356,-15.367997 5.61269,-17.372517 5.61269,-17.372517 0,0 6.68173,4.009043 7.48353,5.612659 0.80182,1.603618 -3.87541,0.668173 -3.87541,0.668173 l 3.34087,5.479026 -5.87992,-1.202713 3.34087,4.810852 -4.94451,-1.202714 -0.80179,3.474506 z"
         id="path4921"
         inkscape:connector-curvature="0" />
      <ellipse
         style="opacity:1;fill:#4d4d4d;fill-opacity:1;stroke:none;stroke-width:2.46499991;stroke-miterlimit:4;stroke-dasharray:none;stroke-dashoffset:0;stroke-opacity:1"
         id="ellipse4923"
         cx="266.40091"
         cy="88.596542"
         rx="2.8731472"
         ry="2.3386083" />
      <path
         style="fill:#803300;stroke:none;stroke-width:0.26458332px;stroke-linecap:butt;stroke-linejoin:miter;stroke-opacity:1"
         d="m 263.87463,88.782319 c -1.08669,1.842635 -2.4096,3.023809 -2.45685,3.307292 -0.0473,0.283482 1.18118,3.023809 1.18118,3.023809 l -0.37798,-2.456844 3.92151,-2.409598 z"
         id="path4925"
         inkscape:connector-curvature="0" />
      <path
         style="fill:#803300;fill-opacity:1;stroke:none;stroke-width:0.26458332px;stroke-linecap:butt;stroke-linejoin:miter;stroke-opacity:1"
         d="m 281.97024,86.325475 c -0.66146,0.850445 -0.66146,1.322917 -0.42524,1.464657 0.23625,0.141742 2.55135,1.039434 2.83482,0.614212 0.28348,-0.425223 0.8032,-0.803199 0.37799,-1.086681 -0.42524,-0.283483 -0.85045,-0.425225 -0.85045,-0.425225 l -0.56698,-0.944939 z"
         id="path4927"
         inkscape:connector-curvature="0" />
    </g>
    <ellipse
       ry="2.271791"
       rx="2.1876504"
       cy="175.56255"
       cx="255.17482"
       id="ellipse4931"
       style="opacity:1;fill:#666666;fill-opacity:1;stroke:none;stroke-width:0.92240733;stroke-miterlimit:4;stroke-dasharray:none;stroke-dashoffset:0;stroke-opacity:1"
       transform="rotate(11.330773)" />
    <path
       style="opacity:1;fill:#4d4d4d;fill-opacity:1;stroke:none;stroke-width:2.46499991;stroke-miterlimit:4;stroke-dasharray:none;stroke-dashoffset:0;stroke-opacity:1"
       d="m 197.02675,176.41273 a 10.772322,8.6934528 11.330773 0 0 -10.22554,2.65376 6.614583,5.6696429 11.330773 0 0 -2.4504,-0.95374 6.614583,5.6696429 11.330773 0 0 -7.59964,4.25984 6.614583,5.6696429 11.330773 0 0 1.3056,4.53641 10.205357,7.9374999 11.330773 0 0 -3.08786,4.35806 10.205357,7.9374999 11.330773 0 0 8.44665,9.78781 10.205357,7.9374999 11.330773 0 0 7.68914,-0.9532 9.0714281,7.5595236 11.330773 0 0 4.09667,1.77272 9.0714281,7.5595236 11.330773 0 0 10.38017,-5.62954 9.0714281,7.5595236 11.330773 0 0 -1.50718,-5.70044 10.772322,8.6934528 11.330773 0 0 1.80696,-3.49162 10.772322,8.6934528 11.330773 0 0 -8.85457,-10.64006 z"
       id="path4933"
       inkscape:connector-curvature="0" />
    <path
       id="path4946"
       d="m 160.39144,171.19192 a 5.3861477,4.3467157 11.330773 0 0 -5.11276,1.32688 3.3072833,2.8348144 11.330773 0 0 -1.22519,-0.47687 3.3072833,2.8348144 11.330773 0 0 -3.79983,2.12991 3.3072833,2.8348144 11.330773 0 0 0.65281,2.2682 5.1026659,3.9687401 11.330773 0 0 -1.54393,2.17903 5.1026659,3.9687401 11.330773 0 0 4.22332,4.89389 5.1026659,3.9687401 11.330773 0 0 3.84457,-0.47659 4.5357028,3.7797525 11.330773 0 0 2.04832,0.88635 4.5357028,3.7797525 11.330773 0 0 5.19007,-2.81476 4.5357028,3.7797525 11.330773 0 0 -0.75358,-2.85021 5.3861477,4.3467157 11.330773 0 0 0.90347,-1.74581 5.3861477,4.3467157 11.330773 0 0 -4.42727,-5.32002 z"
       style="opacity:1;fill:#4d4d4d;fill-opacity:1;stroke:none;stroke-width:1.23249686;stroke-miterlimit:4;stroke-dasharray:none;stroke-dashoffset:0;stroke-opacity:1"
       inkscape:connector-curvature="0" />
    <path
       style="opacity:1;fill:#ffffff;fill-opacity:1;stroke:none;stroke-width:1.85611355;stroke-miterlimit:4;stroke-dasharray:none;stroke-dashoffset:0;stroke-opacity:1"
       d="m 353.25697,146.94363 c -5.36092,0 -9.67655,4.31562 -9.67655,9.67656 v 31.87646 c 0,5.36094 4.31563,9.67695 9.67655,9.67695 h 1.36776 l 1.47863,20.20723 12.12451,-20.20723 h 39.38993 c 5.36092,0 9.67693,-4.31601 9.67693,-9.67695 v -31.87646 c 0,-5.36094 -4.31601,-9.67656 -9.67693,-9.67656 z"
       id="rect4948"
       inkscape:connector-curvature="0" />
    <rect
       style="opacity:1;fill:#999999;fill-opacity:1;stroke:none;stroke-width:2.46499991;stroke-miterlimit:4;stroke-dasharray:none;stroke-dashoffset:0;stroke-opacity:1"
       id="rect4953"
       width="25.324406"
       height="21.544643"
       x="362.1012"
       y="157.52673"
       ry="5.1026807" />
    <rect
       style="opacity:1;fill:none;fill-opacity:1;stroke:#ff0000;stroke-width:2.46499991;stroke-miterlimit:4;stroke-dasharray:none;stroke-dashoffset:0;stroke-opacity:1"
       id="rect4955"
       width="159.82718"
       height="29.399649"
       x="40.624966"
       y="21.177803"
       ry="5.1026745" />
    <path
       style="fill:#e9c6af;fill-opacity:1;stroke:none;stroke-width:0.26458332px;stroke-linecap:butt;stroke-linejoin:miter;stroke-opacity:1"
       d="m 474.67067,296.46541 -14.43254,-162.49987 234.12809,7.48354 19.77795,234.12811 c 0,0 -233.59356,26.1924 -234.1281,20.84702 -0.53456,-5.3454 -5.3454,-99.9588 -5.3454,-99.9588 z"
       id="path4957"
       inkscape:connector-curvature="0" />
  </g>
</svg>
